<svg width="131" height="35" viewBox="0 0 131 35" fill="none" xmlns="http://www.w3.org/2000/svg">
<path d="M0 34.4538V0.546162H14.5189C17.7958 0.546162 20.4205 1.39575 22.3927 3.09493C24.365 4.79411 25.3511 7.1153 25.3511 10.0585C25.3511 11.2115 25.1235 12.319 24.6684 13.381C24.2133 14.4127 23.5002 15.3533 22.5293 16.2029C24.0767 17.2042 25.1691 18.3875 25.8062 19.7529C26.4434 21.1183 26.762 22.5748 26.762 24.1222C26.762 27.3689 25.6545 29.9025 23.4395 31.723C21.2549 33.5436 18.2813 34.4538 14.5189 34.4538H0ZM6.09883 13.7451H14.7464C16.0815 13.7451 17.1435 13.381 17.9324 12.6528C18.7213 11.8942 19.1157 10.9081 19.1157 9.69441C19.1157 8.51105 18.7213 7.55527 17.9324 6.82705C17.1435 6.06849 16.0815 5.68921 14.7464 5.68921H6.09883V13.7451ZM6.09883 29.1287H15.1105C16.7187 29.1287 18.0234 28.6736 19.0247 27.7633C20.0563 26.8227 20.5722 25.609 20.5722 24.1222C20.5722 22.6051 20.0563 21.3914 19.0247 20.4811C18.0234 19.5405 16.7187 19.0702 15.1105 19.0702H6.09883V29.1287Z" fill="#20484F"/>
<path d="M29.5376 34.4538V0H35.3634V34.4538H29.5376Z" fill="#20484F"/>
<path d="M51.0528 35C48.5951 35 46.3649 34.4387 44.3623 33.316C42.3597 32.1933 40.7667 30.6459 39.5834 28.6736C38.4 26.7013 37.8083 24.456 37.8083 21.9376C37.8083 19.4495 38.4 17.2193 39.5834 15.2471C40.7667 13.2748 42.3597 11.7274 44.3623 10.6047C46.3649 9.48201 48.5951 8.92068 51.0528 8.92068C53.5105 8.92068 55.7407 9.48201 57.7433 10.6047C59.7763 11.7274 61.3844 13.2748 62.5678 15.2471C63.7511 17.2193 64.3428 19.4495 64.3428 21.9376C64.3428 24.456 63.7359 26.7013 62.5222 28.6736C61.3389 30.6459 59.7459 32.1933 57.7433 33.316C55.7407 34.4387 53.5105 35 51.0528 35ZM51.0528 29.6749C52.4486 29.6749 53.6926 29.3411 54.7849 28.6736C55.8773 28.0061 56.7268 27.0958 57.3337 25.9428C57.9709 24.7898 58.2895 23.4699 58.2895 21.9831C58.2895 20.4963 57.9709 19.1764 57.3337 18.0234C56.7268 16.8704 55.8773 15.9601 54.7849 15.2926C53.6926 14.6251 52.4486 14.2913 51.0528 14.2913C49.6571 14.2913 48.413 14.6251 47.3207 15.2926C46.2587 15.9601 45.4091 16.8704 44.7719 18.0234C44.1651 19.1764 43.8616 20.4963 43.8616 21.9831C43.8616 23.4699 44.1651 24.7898 44.7719 25.9428C45.4091 27.0958 46.2587 28.0061 47.3207 28.6736C48.413 29.3411 49.6571 29.6749 51.0528 29.6749Z" fill="#20484F"/>
<path d="M78.6899 35C76.2322 35 74.002 34.4387 71.9994 33.316C69.9968 32.1933 68.4038 30.6459 67.2205 28.6736C66.0371 26.7013 65.4454 24.456 65.4454 21.9376C65.4454 19.4495 66.0371 17.2193 67.2205 15.2471C68.4038 13.2748 69.9968 11.7274 71.9994 10.6047C74.002 9.48201 76.2322 8.92068 78.6899 8.92068C81.1476 8.92068 83.3778 9.48201 85.3804 10.6047C87.4134 11.7274 89.0215 13.2748 90.2048 15.2471C91.3882 17.2193 91.9799 19.4495 91.9799 21.9376C91.9799 24.456 91.373 26.7013 90.1593 28.6736C88.976 30.6459 87.383 32.1933 85.3804 33.316C83.3778 34.4387 81.1476 35 78.6899 35ZM78.6899 29.6749C80.0856 29.6749 81.3297 29.3411 82.422 28.6736C83.5144 28.0061 84.3639 27.0958 84.9708 25.9428C85.608 24.7898 85.9266 23.4699 85.9266 21.9831C85.9266 20.4963 85.608 19.1764 84.9708 18.0234C84.3639 16.8704 83.5144 15.9601 82.422 15.2926C81.3297 14.6251 80.0856 14.2913 78.6899 14.2913C77.2941 14.2913 76.0501 14.6251 74.9578 15.2926C73.8958 15.9601 73.0462 16.8704 72.409 18.0234C71.8022 19.1764 71.4987 20.4963 71.4987 21.9831C71.4987 23.4699 71.8022 24.7898 72.409 25.9428C73.0462 27.0958 73.8958 28.0061 74.9578 28.6736C76.0501 29.3411 77.2941 29.6749 78.6899 29.6749Z" fill="#20484F"/>
<path d="M94.4479 34.4538V9.46684H99.9551V12.5618C100.592 11.3481 101.487 10.4378 102.64 9.83095C103.824 9.2241 105.159 8.92068 106.646 8.92068C108.314 8.92068 109.801 9.28479 111.106 10.013C112.411 10.7109 113.457 11.7122 114.246 13.0169C115.005 11.7122 116.067 10.7109 117.432 10.013C118.828 9.28479 120.345 8.92068 121.984 8.92068C123.713 8.92068 125.245 9.31513 126.581 10.104C127.946 10.8929 129.008 11.9853 129.767 13.381C130.525 14.7768 130.904 16.4153 130.904 18.2965V34.4538H125.079V19.6619C125.079 17.9931 124.639 16.6883 123.759 15.7477C122.909 14.7768 121.771 14.2913 120.345 14.2913C118.919 14.2913 117.766 14.7768 116.886 15.7477C116.037 16.6883 115.612 17.9931 115.612 19.6619V34.4538H109.786V19.6619C109.786 17.9931 109.346 16.6883 108.466 15.7477C107.586 14.7768 106.433 14.2913 105.007 14.2913C103.581 14.2913 102.428 14.7768 101.548 15.7477C100.698 16.6883 100.274 17.9931 100.274 19.6619V34.4538H94.4479Z" fill="#20484F"/>
</svg>
