<svg width="83" height="22" viewBox="0 0 83 22" fill="none" xmlns="http://www.w3.org/2000/svg">
<path d="M0 21.6567V0.343302H9.12614C11.186 0.343302 12.8357 0.877329 14.0754 1.94538C15.3151 3.01344 15.935 4.47248 15.935 6.3225C15.935 7.04725 15.7919 7.74339 15.5059 8.41092C15.2198 9.05938 14.7716 9.65063 14.1612 10.1847C15.1339 10.814 15.8205 11.5579 16.2211 12.4161C16.6216 13.2744 16.8218 14.1899 16.8218 15.1625C16.8218 17.2033 16.1257 18.7958 14.7334 19.9402C13.3602 21.0845 11.4911 21.6567 9.12614 21.6567H0ZM3.83355 8.63979H9.26918C10.1084 8.63979 10.7759 8.41092 11.2718 7.95319C11.7677 7.47638 12.0156 6.85652 12.0156 6.09363C12.0156 5.3498 11.7677 4.74902 11.2718 4.29129C10.7759 3.81448 10.1084 3.57607 9.26918 3.57607H3.83355V8.63979ZM3.83355 18.3095H9.49805C10.5089 18.3095 11.329 18.0234 11.9584 17.4512C12.6068 16.86 12.9311 16.0971 12.9311 15.1625C12.9311 14.2089 12.6068 13.446 11.9584 12.8739C11.329 12.2826 10.5089 11.987 9.49805 11.987H3.83355V18.3095Z" fill="#20484F"/>
<path d="M18.5665 21.6567V0H22.2284V21.6567H18.5665Z" fill="#20484F"/>
<path d="M32.0903 22C30.5455 22 29.1437 21.6472 27.8849 20.9415C26.6261 20.2358 25.6248 19.2631 24.881 18.0234C24.1371 16.7837 23.7652 15.3723 23.7652 13.7893C23.7652 12.2254 24.1371 10.8236 24.881 9.58387C25.6248 8.34417 26.6261 7.37148 27.8849 6.6658C29.1437 5.96012 30.5455 5.60728 32.0903 5.60728C33.6352 5.60728 35.037 5.96012 36.2958 6.6658C37.5737 7.37148 38.5845 8.34417 39.3283 9.58387C40.0721 10.8236 40.444 12.2254 40.444 13.7893C40.444 15.3723 40.0626 16.7837 39.2997 18.0234C38.5559 19.2631 37.5546 20.2358 36.2958 20.9415C35.037 21.6472 33.6352 22 32.0903 22ZM32.0903 18.6528C32.9677 18.6528 33.7496 18.443 34.4362 18.0234C35.1228 17.6038 35.6569 17.0316 36.0383 16.3069C36.4388 15.5821 36.6391 14.7525 36.6391 13.8179C36.6391 12.8834 36.4388 12.0538 36.0383 11.329C35.6569 10.6042 35.1228 10.0321 34.4362 9.61248C33.7496 9.19289 32.9677 8.98309 32.0903 8.98309C31.213 8.98309 30.431 9.19289 29.7444 9.61248C29.0769 10.0321 28.5429 10.6042 28.1424 11.329C27.7609 12.0538 27.5702 12.8834 27.5702 13.8179C27.5702 14.7525 27.7609 15.5821 28.1424 16.3069C28.5429 17.0316 29.0769 17.6038 29.7444 18.0234C30.431 18.443 31.213 18.6528 32.0903 18.6528Z" fill="#20484F"/>
<path d="M49.4622 22C47.9174 22 46.5155 21.6472 45.2568 20.9415C43.998 20.2358 42.9967 19.2631 42.2529 18.0234C41.509 16.7837 41.1371 15.3723 41.1371 13.7893C41.1371 12.2254 41.509 10.8236 42.2529 9.58387C42.9967 8.34417 43.998 7.37148 45.2568 6.6658C46.5155 5.96012 47.9174 5.60728 49.4622 5.60728C51.0071 5.60728 52.4089 5.96012 53.6677 6.6658C54.9455 7.37148 55.9564 8.34417 56.7002 9.58387C57.444 10.8236 57.8159 12.2254 57.8159 13.7893C57.8159 15.3723 57.4345 16.7837 56.6716 18.0234C55.9278 19.2631 54.9265 20.2358 53.6677 20.9415C52.4089 21.6472 51.0071 22 49.4622 22ZM49.4622 18.6528C50.3396 18.6528 51.1215 18.443 51.8081 18.0234C52.4947 17.6038 53.0288 17.0316 53.4102 16.3069C53.8107 15.5821 54.011 14.7525 54.011 13.8179C54.011 12.8834 53.8107 12.0538 53.4102 11.329C53.0288 10.6042 52.4947 10.0321 51.8081 9.61248C51.1215 9.19289 50.3396 8.98309 49.4622 8.98309C48.5849 8.98309 47.8029 9.19289 47.1163 9.61248C46.4488 10.0321 45.9148 10.6042 45.5142 11.329C45.1328 12.0538 44.9421 12.8834 44.9421 13.8179C44.9421 14.7525 45.1328 15.5821 45.5142 16.3069C45.9148 17.0316 46.4488 17.6038 47.1163 18.0234C47.8029 18.443 48.5849 18.6528 49.4622 18.6528Z" fill="#20484F"/>
<path d="M59.3673 21.6567V5.95059H62.8289V7.89597C63.2294 7.13307 63.7921 6.5609 64.5168 6.17945C65.2606 5.79801 66.0998 5.60728 67.0344 5.60728C68.0834 5.60728 69.0179 5.83615 69.838 6.29389C70.6581 6.73255 71.3161 7.36194 71.812 8.18205C72.2888 7.36194 72.9564 6.73255 73.8146 6.29389C74.6919 5.83615 75.6456 5.60728 76.6755 5.60728C77.7626 5.60728 78.7258 5.85522 79.5649 6.35111C80.4232 6.84699 81.0907 7.53359 81.5675 8.41092C82.0443 9.28825 82.2828 10.3182 82.2828 11.5007V21.6567H78.6209V12.3589C78.6209 11.3099 78.3443 10.4898 77.7912 9.89857C77.2572 9.28825 76.542 8.98309 75.6456 8.98309C74.7492 8.98309 74.0244 9.28825 73.4713 9.89857C72.9373 10.4898 72.6703 11.3099 72.6703 12.3589V21.6567H69.0084V12.3589C69.0084 11.3099 68.7318 10.4898 68.1787 9.89857C67.6256 9.28825 66.9009 8.98309 66.0045 8.98309C65.1081 8.98309 64.3833 9.28825 63.8302 9.89857C63.2962 10.4898 63.0292 11.3099 63.0292 12.3589V21.6567H59.3673Z" fill="#20484F"/>
</svg>
