<svg width="21" height="21" viewBox="0 0 21 21" fill="none" xmlns="http://www.w3.org/2000/svg">
<path d="M10.5 21C4.71188 21 0 16.2881 0 10.5C0 4.71188 4.71188 0 10.5 0C16.2881 0 21 4.71188 21 10.5C21 16.2881 16.2881 21 10.5 21ZM19.355 11.9368C19.0488 11.8405 16.5813 11.1029 13.769 11.5535C14.9415 14.777 15.4201 17.402 15.512 17.948C17.5245 16.5874 18.956 14.4305 19.3576 11.9368H19.355ZM14.0044 18.7688C13.8705 17.9813 13.3481 15.2408 12.0881 11.97L12.0304 11.9875C6.96412 13.7506 5.15288 17.2594 4.99538 17.5875C6.50913 18.7758 8.42537 19.4828 10.4991 19.4828C11.7416 19.4828 12.9229 19.229 13.9991 18.7705L14.0044 18.7688ZM3.83688 16.5113C4.03988 16.1613 6.50125 12.0881 11.1274 10.5919C11.2455 10.5525 11.3636 10.5184 11.4817 10.4869C11.2542 9.975 11.0092 9.46575 10.7537 8.96437C6.27375 10.3031 1.93025 10.2462 1.5365 10.2375L1.533 10.5105C1.533 12.8144 2.40625 14.9179 3.83775 16.5086L3.83688 16.5113ZM1.71938 8.67562C2.12188 8.68262 5.817 8.69837 10.0118 7.58362C8.526 4.94287 6.923 2.72038 6.68675 2.39663C4.17725 3.57788 2.303 5.88788 1.72025 8.67038L1.71938 8.67562ZM8.4 1.7955C8.64675 2.128 10.2769 4.34525 11.7442 7.0455C14.9336 5.85113 16.2855 4.0355 16.4456 3.80625C14.8619 2.3975 12.7794 1.5435 10.5 1.5435C9.77813 1.5435 9.07375 1.631 8.4 1.79288V1.7955ZM17.4431 4.84312C17.2524 5.09687 15.75 7.0245 12.4346 8.37812C12.6446 8.80687 12.8459 9.24 13.0296 9.67837C13.0996 9.83587 13.1609 9.99337 13.2221 10.1421C16.2059 9.76587 19.1721 10.3696 19.4696 10.4309C19.4521 8.31337 18.6996 6.37087 17.4484 4.84837L17.4431 4.84312Z" fill="white"/>
</svg>
