<svg width="21" height="21" viewBox="0 0 21 21" fill="none" xmlns="http://www.w3.org/2000/svg">
<path d="M10.5 0.259888C4.69875 0.259888 0 4.96126 0 10.7599C0 15.4 3.00825 19.3349 7.17937 20.7218C7.70437 20.8206 7.89687 20.496 7.89687 20.2169C7.89687 19.9675 7.88813 19.3069 7.88375 18.4319C4.963 19.0654 4.347 17.0231 4.347 17.0231C3.86925 15.8113 3.17887 15.4875 3.17887 15.4875C2.22775 14.8365 3.25238 14.8496 3.25238 14.8496C4.30675 14.9231 4.86062 15.9311 4.86062 15.9311C5.79688 17.5368 7.3185 17.073 7.91875 16.8044C8.01325 16.1254 8.28363 15.6625 8.58375 15.4C6.25188 15.1375 3.801 14.2345 3.801 10.2113C3.801 9.06501 4.20788 8.12876 4.88163 7.39376C4.7635 7.12864 4.40912 6.06114 4.9735 4.61476C4.9735 4.61476 5.85288 4.33301 7.861 5.69101C8.701 5.45739 9.5935 5.34189 10.486 5.33664C11.3785 5.34189 12.271 5.45739 13.111 5.69101C15.106 4.33301 15.9854 4.61476 15.9854 4.61476C16.5497 6.06114 16.1954 7.12864 16.0904 7.39376C16.7598 8.12876 17.1666 9.06501 17.1666 10.2113C17.1666 14.245 14.7122 15.1331 12.376 15.3913C12.7435 15.7063 13.0848 16.3503 13.0848 17.3338C13.0848 18.739 13.0716 19.8678 13.0716 20.209C13.0716 20.4846 13.2554 20.8128 13.7935 20.7078C17.9944 19.3305 21 15.393 21 10.7599C21 4.96126 16.2986 0.259888 10.5 0.259888Z" fill="#20484F"/>
</svg>
