<svg width="21" height="21" viewBox="0 0 21 21" fill="none" xmlns="http://www.w3.org/2000/svg">
<path d="M10.71 8.99937V12.6H16.6653C16.4246 14.1444 14.8663 17.1272 10.71 17.1272C7.12687 17.1272 4.20087 14.1619 4.20087 10.5C4.20087 6.83813 7.12775 3.87275 10.71 3.87275C12.7487 3.87275 14.1146 4.73812 14.8969 5.49062L17.7441 2.74487C15.9154 1.03775 13.5441 0 10.71 0C4.90437 0 0.209999 4.69438 0.209999 10.5C0.209999 16.3056 4.90437 21 10.71 21C16.7703 21 20.79 16.7396 20.79 10.7397C20.79 10.0503 20.7156 9.5235 20.6246 8.99937H10.71Z" fill="#20484F"/>
</svg>
