<svg width="35" height="35" viewBox="0 0 35 35" fill="none" xmlns="http://www.w3.org/2000/svg">
<path fill-rule="evenodd" clip-rule="evenodd" d="M8.75 0C3.91751 0 0 3.91751 0 8.75V26.25C0 31.0825 3.91751 35 8.75 35H26.25C31.0825 35 35 31.0825 35 26.25V8.75C35 3.91751 31.0825 0 26.25 0H8.75ZM10.9375 16.2132C10.9375 13.2995 13.2995 10.9375 16.2132 10.9375C19.1269 10.9375 21.489 13.2995 21.489 16.2132C21.489 19.1269 19.1269 21.489 16.2132 21.489C13.2995 21.489 10.9375 19.1269 10.9375 16.2132ZM16.2132 9.47917C12.4941 9.47917 9.47917 12.4941 9.47917 16.2132C9.47917 19.9324 12.4941 22.9473 16.2132 22.9473C17.8102 22.9473 19.2771 22.3914 20.4315 21.4627L23.5468 24.5782C23.8316 24.8628 24.2934 24.8628 24.5782 24.5782C24.8628 24.2934 24.8628 23.8316 24.5782 23.5468L21.4627 20.4315C22.3914 19.2771 22.9473 17.8102 22.9473 16.2132C22.9473 12.4941 19.9324 9.47917 16.2132 9.47917Z" fill="#20484F"/>
</svg>
