<svg width="35" height="35" viewBox="0 0 35 35" fill="none" xmlns="http://www.w3.org/2000/svg">
<path fill-rule="evenodd" clip-rule="evenodd" d="M8.75 0C3.91751 0 0 3.91751 0 8.75V26.25C0 31.0825 3.91751 35 8.75 35H26.25C31.0825 35 35 31.0825 35 26.25V8.75C35 3.91751 31.0825 0 26.25 0H8.75ZM17.5 8.02083C14.5927 8.02083 12.3958 10.6804 12.3958 13.75V20.6251C12.3958 21.0277 12.7223 21.3542 13.125 21.3542C13.5277 21.3542 13.8542 21.0277 13.8542 20.6251V13.75C13.8542 11.2968 15.5749 9.47917 17.5 9.47917C19.4251 9.47917 21.1458 11.2968 21.1458 13.75C21.1458 14.1527 21.4724 14.4792 21.875 14.4792C22.2776 14.4792 22.6042 14.1527 22.6042 13.75C22.6042 10.6804 20.4073 8.02083 17.5 8.02083ZM22.6042 17.5C22.6042 17.0974 22.2776 16.7708 21.875 16.7708C21.4724 16.7708 21.1458 17.0974 21.1458 17.5V20.6251C21.1458 23.0952 19.5565 24.8958 17.5 24.8958H17.394C16.1397 24.8962 15.4742 24.8965 14.9597 24.3106C14.694 24.008 14.2333 23.9781 13.9307 24.2438C13.6281 24.5095 13.5981 24.9702 13.8639 25.2728C14.8327 26.3761 16.1744 26.3648 17.2295 26.3557C17.3221 26.355 17.4124 26.3541 17.5 26.3541C20.5682 26.3541 22.6042 23.6776 22.6042 20.6251V17.5ZM17.5 13.8542C17.9026 13.8542 18.2292 14.1806 18.2292 14.5833V20.4167C18.2292 20.8193 17.9026 21.1458 17.5 21.1458C17.0974 21.1458 16.7708 20.8193 16.7708 20.4167V14.5833C16.7708 14.1806 17.0974 13.8542 17.5 13.8542ZM16.7708 3.64583C11.4434 3.64583 8.02083 8.2083 8.02083 13.125V14.981V17.1685C8.02083 17.5713 8.3473 17.8977 8.75 17.8977C9.1527 17.8977 9.47917 17.5713 9.47917 17.1685V14.981V13.125C9.47917 8.81603 12.4332 5.10417 16.7708 5.10417C18.0594 5.10417 19.944 5.38719 20.9488 5.84284C21.3156 6.00915 21.7478 5.84665 21.9141 5.47989C22.0803 5.11312 21.9179 4.68099 21.5511 4.51468C20.2828 3.93956 18.1662 3.64583 16.7708 3.64583ZM24.75 6.8762C24.484 6.5739 24.0233 6.54452 23.721 6.81058C23.4186 7.07664 23.3892 7.53738 23.6553 7.83968C24.8229 9.16635 25.5208 10.8704 25.5208 12.7273C25.5208 13.13 25.8474 13.4564 26.25 13.4564C26.6526 13.4564 26.9792 13.13 26.9792 12.7273C26.9792 10.495 26.1379 8.45317 24.75 6.8762ZM26.9792 18.9583C26.9792 18.5555 26.6526 18.2292 26.25 18.2292C25.8474 18.2292 25.5208 18.5555 25.5208 18.9583V22.2727C25.5208 23.885 24.9948 25.381 24.093 26.6152C23.8553 26.9404 23.9263 27.3965 24.2515 27.6341C24.5766 27.8718 25.0327 27.8008 25.2704 27.4756C26.3457 26.0041 26.9792 24.2095 26.9792 22.2727V18.9583ZM9.47917 21.875C9.47917 21.4724 9.1527 21.1458 8.75 21.1458C8.3473 21.1458 8.02083 21.4724 8.02083 21.875C8.02083 26.9221 12.2971 30.9565 17.5 30.9565C19.1236 30.9565 20.8626 30.9326 22.373 30.0638C22.7221 29.863 22.8423 29.4174 22.6415 29.0682C22.4408 28.7191 21.995 28.5989 21.6459 28.7998C20.5225 29.4459 19.1756 29.4981 17.5 29.4981C13.0379 29.4981 9.47917 26.0536 9.47917 21.875Z" fill="white"/>
</svg>
