<svg width="35" height="35" viewBox="0 0 35 35" fill="none" xmlns="http://www.w3.org/2000/svg">
<path fill-rule="evenodd" clip-rule="evenodd" d="M0 17.5C0 7.83501 7.83501 0 17.5 0C27.165 0 35 7.83501 35 17.5C35 27.165 27.165 35 17.5 35C7.83501 35 0 27.165 0 17.5ZM6.92708 21.875C6.92708 21.4724 7.25355 21.1458 7.65625 21.1458H9.90424C10.2514 19.0766 12.0509 17.5 14.2188 17.5C16.3866 17.5 18.1861 19.0766 18.5332 21.1458H27.3438C27.7464 21.1458 28.0729 21.4724 28.0729 21.875C28.0729 22.2776 27.7464 22.6042 27.3438 22.6042H18.5332C18.1861 24.6734 16.3866 26.25 14.2188 26.25C12.0509 26.25 10.2514 24.6734 9.90424 22.6042H7.65625C7.25355 22.6042 6.92708 22.2776 6.92708 21.875ZM7.65625 12.3958C7.25355 12.3958 6.92708 12.7223 6.92708 13.125C6.92708 13.5277 7.25355 13.8542 7.65625 13.8542H16.4668C16.8139 15.9234 18.6134 17.5 20.7813 17.5C22.9491 17.5 24.7486 15.9234 25.0957 13.8542H27.3438C27.7464 13.8542 28.0729 13.5277 28.0729 13.125C28.0729 12.7223 27.7464 12.3958 27.3438 12.3958H25.0957C24.7486 10.3267 22.9491 8.75 20.7813 8.75C18.6134 8.75 16.8139 10.3267 16.4668 12.3958H7.65625Z" fill="#20484F"/>
</svg>
