<svg width="21" height="21" viewBox="0 0 21 21" fill="none" xmlns="http://www.w3.org/2000/svg">
<path d="M8.40351 7.1575L12.2535 1.575C12.9833 0.525 13.9213 0 15.0771 0C16.0151 0 16.8289 0.333375 17.5175 1.001C18.2026 1.67038 18.5465 2.46663 18.5465 3.39675C18.5465 4.08275 18.3654 4.69087 18.0005 5.21587L14.5294 10.2637L18.7758 15.6476C19.1993 16.1831 19.4119 16.8114 19.4119 17.5289C19.4119 18.4791 19.0785 19.2946 18.41 19.9771C17.7433 20.6587 16.9348 21 15.9854 21C14.945 21 14.1505 20.6614 13.6045 19.985L8.40438 13.4951V17.073C8.40438 18.095 8.22763 18.8877 7.87326 19.4547C7.22838 20.4846 6.29563 21 5.06188 21C3.94013 21 3.07038 20.6185 2.45525 19.8634C1.87775 19.1643 1.589 18.2394 1.589 17.0879V3.81937C1.589 2.73 1.883 1.82962 2.4675 1.12175C3.07825 0.3745 3.927 0 5.01025 0C6.04188 0 6.90025 0.3745 7.588 1.12175C7.97125 1.53737 8.21363 1.95562 8.31513 2.38175C8.37638 2.64425 8.407 3.1325 8.407 3.85175V7.1575H8.40351V7.1575Z" fill="white"/>
</svg>
