<svg width="184" height="27" viewBox="0 0 184 27" fill="none" xmlns="http://www.w3.org/2000/svg">
<path d="M0 0.898438H5.74464L15.5358 14.9891V0.898438H22.4005V26.1893H16.2584L6.50336 12.0987V26.1893H0V0.898438Z" fill="#20484F"/>
<path d="M34.6761 26.659C33.3273 26.659 32.0627 26.4663 30.8825 26.0809C29.7023 25.6714 28.6665 25.0572 27.7753 24.2383C26.8841 23.4193 26.1856 22.3957 25.6798 21.1672C25.174 19.9148 24.9211 18.4575 24.9211 16.7955V16.073C24.9211 14.5073 25.174 13.1344 25.6798 11.9542C26.1856 10.7739 26.8841 9.78637 27.7753 8.99151C28.6665 8.19666 29.7023 7.59449 30.8825 7.18502C32.0627 6.77555 33.3273 6.57081 34.6761 6.57081C36.025 6.57081 37.2895 6.77555 38.4698 7.18502C39.65 7.59449 40.6857 8.19666 41.5769 8.99151C42.4681 9.78637 43.1666 10.7739 43.6724 11.9542C44.1783 13.1344 44.4312 14.5073 44.4312 16.073V16.7955C44.4312 18.4334 44.1783 19.8786 43.6724 21.1311C43.1666 22.3595 42.4681 23.3832 41.5769 24.2022C40.6857 25.0211 39.65 25.6353 38.4698 26.0448C37.2895 26.4542 36.025 26.659 34.6761 26.659ZM34.6761 22.0344C35.9768 22.0344 36.9764 21.5647 37.6749 20.6253C38.3734 19.6859 38.7227 18.4093 38.7227 16.7955V16.073C38.7227 14.6278 38.3734 13.4596 37.6749 12.5684C36.9764 11.6531 35.9768 11.1954 34.6761 11.1954C33.3755 11.1954 32.3759 11.6531 31.6774 12.5684C30.9788 13.4596 30.6296 14.6278 30.6296 16.073V16.7955C30.6296 18.4575 30.9788 19.7461 31.6774 20.6614C32.3759 21.5767 33.3755 22.0344 34.6761 22.0344Z" fill="#20484F"/>
<path d="M46.2235 7.0405H51.354V9.64185C51.4985 9.32872 51.7153 8.99151 52.0043 8.63021C52.3174 8.26891 52.6787 7.9317 53.0882 7.61858C53.4977 7.30545 53.9553 7.05255 54.4611 6.85985C54.991 6.66716 55.5571 6.57081 56.1592 6.57081C56.5687 6.57081 56.8939 6.5949 57.1347 6.64308C57.3756 6.69125 57.5924 6.73942 57.7851 6.7876V11.5929C57.6646 11.5206 57.3877 11.4363 56.9541 11.3399C56.5205 11.2436 56.0147 11.1954 55.4366 11.1954C54.1601 11.1954 53.2327 11.5688 52.6546 12.3155C52.0766 13.0621 51.7875 13.9654 51.7875 15.0252V26.1893H46.2235V7.0405Z" fill="#20484F"/>
<path d="M68.0524 26.4061C66.8481 26.4061 65.8124 26.2977 64.9453 26.0809C64.0781 25.84 63.3676 25.4547 62.8136 24.9247C62.2596 24.3948 61.8501 23.7084 61.5852 22.8654C61.3202 21.9982 61.1878 20.9384 61.1878 19.6859V11.5929H58.8393V7.0405H61.1878V2.70493H66.7518V7.0405H71.1235V11.5929H66.7518V18.7827C66.7518 19.8666 66.9204 20.6373 67.2576 21.095C67.6189 21.5526 68.3053 21.7815 69.317 21.7815C70.0396 21.7815 70.7622 21.7453 71.4848 21.6731V26.2254C71.0271 26.2736 70.5454 26.3097 70.0396 26.3338C69.5338 26.382 68.8714 26.4061 68.0524 26.4061Z" fill="#20484F"/>
<path d="M73.3054 0.898438H78.8693V9.4612C79.062 9.14807 79.327 8.82291 79.6642 8.48569C80.0014 8.14848 80.4109 7.83536 80.8926 7.54632C81.3984 7.25728 81.9765 7.02846 82.6268 6.85985C83.2772 6.66716 83.9998 6.57081 84.7946 6.57081C87.0829 6.57081 88.805 7.19706 89.9612 8.44956C91.1414 9.67798 91.7316 11.4242 91.7316 13.6884V26.1893H86.1676V14.9891C86.1676 13.7366 85.8906 12.7972 85.3366 12.1709C84.8067 11.5206 83.9275 11.1954 82.6991 11.1954C81.3503 11.1954 80.3747 11.5567 79.7726 12.2793C79.1704 13.0019 78.8693 13.9052 78.8693 14.9891V26.1893H73.3054V0.898438Z" fill="#20484F"/>
<path d="M92.2989 7.0405H98.2964L100.97 18.8188L104.33 7.0405H109.533L113.146 18.7104L116.145 7.0405H121.564L116.217 26.1893H110.653L106.895 13.7606L103.21 26.1893H97.6461L92.2989 7.0405Z" fill="#20484F"/>
<path d="M131.687 26.659C130.29 26.659 128.978 26.4663 127.749 26.0809C126.545 25.6714 125.497 25.0572 124.606 24.2383C123.715 23.4193 123.016 22.3957 122.51 21.1672C122.005 19.9148 121.752 18.4575 121.752 16.7955V16.073C121.752 14.4832 121.993 13.0983 122.474 11.918C122.98 10.7378 123.655 9.75024 124.498 8.95538C125.365 8.16053 126.376 7.57041 127.533 7.18502C128.713 6.77555 129.977 6.57081 131.326 6.57081C134.481 6.57081 136.866 7.38976 138.48 9.02764C140.094 10.6414 140.901 12.9899 140.901 16.073V18.0601H127.46C127.484 18.8068 127.617 19.4451 127.858 19.975C128.099 20.4808 128.412 20.9023 128.797 21.2395C129.182 21.5767 129.616 21.8296 130.098 21.9982C130.604 22.1428 131.133 22.215 131.687 22.215C132.747 22.215 133.578 22.0585 134.18 21.7453C134.807 21.4081 135.216 20.9625 135.409 20.4085H140.539C140.154 22.5041 139.202 24.0697 137.685 25.1054C136.168 26.1411 134.168 26.659 131.687 26.659ZM131.507 10.9786C131.001 10.9786 130.507 11.0389 130.025 11.1593C129.568 11.2797 129.146 11.4845 128.761 11.7735C128.4 12.0385 128.099 12.3877 127.858 12.8213C127.641 13.2548 127.52 13.7847 127.496 14.411H135.445C135.445 13.7366 135.337 13.1826 135.12 12.749C134.903 12.3155 134.614 11.9662 134.253 11.7012C133.915 11.4363 133.506 11.2556 133.024 11.1593C132.542 11.0389 132.037 10.9786 131.507 10.9786Z" fill="#20484F"/>
<path d="M151.011 26.659C149.446 26.659 148.097 26.5024 146.965 26.1893C145.857 25.8521 144.941 25.4065 144.219 24.8525C143.496 24.2744 142.954 23.612 142.593 22.8654C142.232 22.0946 142.027 21.2756 141.979 20.4085H147.543C147.687 20.9625 148 21.4322 148.482 21.8176C148.964 22.203 149.807 22.3957 151.011 22.3957C152.24 22.3957 153.119 22.2271 153.649 21.8898C154.203 21.5526 154.48 21.107 154.48 20.553C154.48 20.3363 154.419 20.1436 154.299 19.975C154.179 19.7823 153.95 19.6137 153.613 19.4692C153.299 19.3005 152.866 19.144 152.312 18.9995C151.758 18.8549 151.047 18.7104 150.18 18.5659C149.12 18.3973 148.121 18.1805 147.181 17.9156C146.242 17.6506 145.423 17.3014 144.725 16.8678C144.05 16.4102 143.508 15.8321 143.099 15.1336C142.713 14.4351 142.521 13.5559 142.521 12.4961C142.521 11.6531 142.713 10.8703 143.099 10.1477C143.484 9.42507 144.038 8.79882 144.761 8.26892C145.507 7.73901 146.399 7.32954 147.434 7.0405C148.494 6.72738 149.686 6.57081 151.011 6.57081C152.505 6.57081 153.757 6.75146 154.769 7.11276C155.804 7.47406 156.647 7.95579 157.298 8.55795C157.948 9.13603 158.43 9.79841 158.743 10.5451C159.056 11.2918 159.249 12.0505 159.321 12.8213H153.757C153.613 12.195 153.299 11.7133 152.818 11.3761C152.336 11.0148 151.734 10.8341 151.011 10.8341C149.903 10.8341 149.132 11.0027 148.699 11.3399C148.289 11.6772 148.085 12.0746 148.085 12.5322C148.085 13.038 148.422 13.4355 149.096 13.7245C149.771 13.9895 150.843 14.2183 152.312 14.411C153.348 14.5555 154.335 14.7602 155.275 15.0252C156.214 15.2901 157.033 15.6635 157.731 16.1452C158.454 16.6029 159.02 17.193 159.429 17.9156C159.839 18.6141 160.044 19.4692 160.044 20.4808C160.044 22.3114 159.273 23.8047 157.731 24.9609C156.214 26.0929 153.974 26.659 151.011 26.659Z" fill="#20484F"/>
<path d="M169.787 26.4061C168.583 26.4061 167.547 26.2977 166.68 26.0809C165.813 25.84 165.103 25.4547 164.549 24.9247C163.995 24.3948 163.585 23.7084 163.32 22.8654C163.055 21.9982 162.923 20.9384 162.923 19.6859V11.5929H160.574V7.0405H162.923V2.70493H168.487V7.0405H172.858V11.5929H168.487V18.7827C168.487 19.8666 168.655 20.6373 168.993 21.095C169.354 21.5526 170.04 21.7815 171.052 21.7815C171.775 21.7815 172.497 21.7453 173.22 21.6731V26.2254C172.762 26.2736 172.28 26.3097 171.775 26.3338C171.269 26.382 170.606 26.4061 169.787 26.4061Z" fill="#20484F"/>
<path fill-rule="evenodd" clip-rule="evenodd" d="M179.615 4.71105H178.223V8.17699H178.854V6.85003H179.605L180.419 8.17699H181.112L180.187 6.78071C180.461 6.70479 180.665 6.58101 180.802 6.40936C180.938 6.23442 181.007 6.02811 181.007 5.79045C181.007 5.632 180.977 5.48676 180.917 5.35473C180.858 5.22269 180.77 5.10881 180.655 5.01308C180.539 4.91736 180.394 4.84309 180.219 4.79027C180.047 4.73746 179.846 4.71105 179.615 4.71105ZM180.182 6.20636C180.056 6.30538 179.832 6.3549 179.51 6.3549H178.854V5.22599H179.51C179.832 5.22599 180.056 5.27551 180.182 5.37453C180.312 5.47356 180.377 5.6122 180.377 5.79045C180.377 5.96869 180.312 6.10733 180.182 6.20636Z" fill="#20484F"/>
<path fill-rule="evenodd" clip-rule="evenodd" d="M174.757 6.44402C174.757 3.89178 176.827 1.82277 179.379 1.82277C181.931 1.82277 184 3.89178 184 6.44402C184 8.99627 181.931 11.0653 179.379 11.0653C176.827 11.0653 174.757 8.99627 174.757 6.44402ZM179.379 10.4351C177.175 10.4351 175.388 8.64824 175.388 6.44402C175.388 4.23981 177.175 2.45294 179.379 2.45294C181.583 2.45294 183.37 4.23981 183.37 6.44402C183.37 8.64824 181.583 10.4351 179.379 10.4351Z" fill="#20484F"/>
</svg>
