<svg width="184" height="34" viewBox="0 0 184 34" fill="none" xmlns="http://www.w3.org/2000/svg">
<path d="M12.198 17.5261C18.8638 17.5261 25.1669 13.7398 25.1669 7.93551C25.1669 3.10619 20.2015 0 13.3317 0C6.66583 0 0 3.42361 0 9.22786C0 14.0572 5.32813 17.5261 12.198 17.5261ZM14.7374 15.5989C7.57274 15.5989 5.01071 10.0214 5.01071 6.98325C5.01071 4.08112 6.48444 1.56443 10.6563 1.56443C15.1455 1.56443 20.3829 4.96536 20.3829 10.1801C20.3829 12.8782 18.7505 15.5989 14.7374 15.5989Z" fill="#20484F"/>
<path d="M54.5798 15.7577C54.4665 15.1682 54.3531 14.3066 54.3531 13.0823V4.89734C54.3531 1.76848 55.0333 1.04295 55.0333 1.04295H52.0858C52.0858 1.04295 52.766 1.76848 52.766 4.87467L52.698 13.0823C52.698 13.377 52.698 13.6717 52.6753 13.9211L39.2303 1.04295H32.2017C32.6325 1.38305 33.154 1.85918 33.7661 2.426C33.8568 2.99282 33.9475 3.78637 33.9475 4.87467L33.8795 13.0823C33.8795 16.1884 33.1993 16.914 33.1993 16.914H36.2148C36.2148 16.914 35.5346 16.1884 35.5346 13.0823V4.89734C35.5346 4.62527 35.5346 4.35319 35.5573 4.10379C39.253 7.68611 44.5357 13.0596 48.5035 16.914H52.0178C53.5142 16.914 54.4665 16.914 55.0333 16.914H55.8042L54.5798 15.7577Z" fill="#20484F"/>
<path d="M94.2044 1.04295C94.2044 1.04295 94.4538 2.10858 92.6853 6.16702L88.8536 13.6491L84.5458 4.98803C83.4121 2.63005 83.1627 1.04295 83.1854 1.04295H76.1115C76.905 1.94987 77.6759 3.31024 78.3787 4.64794L73.7535 13.6491L69.4456 4.98803C68.312 2.63005 68.0626 1.04295 68.0853 1.04295H61.0113C62.2356 2.44867 63.4373 4.98803 64.3669 6.71117L69.8537 16.914H73.8668L79.3537 6.48444C79.399 6.57514 79.4217 6.64316 79.467 6.71117L84.9539 16.914H88.967L96.0409 3.46895C96.5397 2.63005 97.0839 1.79116 97.6507 1.04295H94.2044Z" fill="#20484F"/>
<path d="M99.4507 16.914H103.373C103.078 16.2111 103.305 15.4402 103.759 14.624L105.278 12.1073H114.914L116.183 14.2159C116.637 15.1455 117.136 16.3925 116.705 16.914H124.912C123.983 16.3698 122.146 13.8078 120.99 12.0166L119.879 10.2935L113.803 1.04295H105.686V1.15632C106.842 1.42839 107.953 2.22194 108.883 3.12886C107.001 6.12168 105.142 9.1145 103.26 12.0846C102.217 13.6944 100.743 15.735 99.4507 16.914ZM105.89 11.0644L109.971 4.30785C110.492 4.94269 110.923 5.57753 111.218 6.03099L114.279 11.0644H105.89Z" fill="#20484F"/>
<path d="M145.615 10.3388C149.356 9.68132 152.008 7.68611 152.008 5.26011C152.008 2.49402 150.059 0.816224 141.08 0.816224H130.809C130.809 0.816224 131.671 1.31503 131.648 4.87467L131.58 13.0823C131.557 16.1884 130.968 16.914 130.968 16.914H137.248C137.248 16.914 136.636 16.1884 136.636 13.0823V9.68132C137.656 9.72667 138.835 10.1801 140.377 11.0644C141.261 11.5858 143.007 12.9009 145.887 16.1884C146.045 16.3698 146.295 16.7553 146.295 16.914H154.57V16.5512C152.485 16.4152 148.743 12.9916 145.615 10.3388ZM136.636 5.12407C136.636 3.74103 136.727 2.90213 136.818 2.08591C137.588 1.94987 138.405 1.85918 139.946 1.85918C143.733 1.85918 146.907 3.15153 146.907 6.30306C146.907 8.525 144.345 9.65865 141.896 9.65865C139.334 9.65865 137.815 9.00113 136.636 8.32095V5.12407Z" fill="#20484F"/>
<path d="M172.913 1.04295H161.826C161.826 1.04295 162.506 1.76848 162.506 4.87467L162.438 13.0823C162.438 16.1884 161.826 16.9366 161.826 16.9366H171.485C179.601 16.9366 184 12.3567 184 7.61809C184 2.6754 178.627 1.04295 172.913 1.04295ZM172.142 15.9844C170.011 15.9844 168.65 15.5309 167.585 14.8734C167.517 14.3973 167.494 13.8078 167.494 13.0823V4.89734C167.494 3.85439 167.562 3.08351 167.653 2.51669C168.9 2.10858 170.079 2.06323 171.054 2.08591C175.067 2.08591 178.785 4.19448 178.785 9.27321C178.785 13.1503 176.745 15.9844 172.142 15.9844Z" fill="#20484F"/>
<path d="M41.8826 29.1781H43.9437V33.4035H44.9743V29.1781H47.0355V28.2505H41.8826V29.1781Z" fill="#20484F"/>
<path d="M49.2521 33.4035H50.2827V31.2908H52.0347L53.3435 33.4035H54.5081L53.3435 31.5278C53.3023 31.4556 53.2301 31.3629 53.158 31.2804C53.9721 31.198 54.5081 30.6209 54.5081 29.7964C54.5081 28.8689 53.8897 28.2505 52.9622 28.2505H49.2521V33.4035ZM50.2827 30.3632V29.1781H52.9622C53.2714 29.1781 53.4775 29.3842 53.4775 29.6933V29.8479C53.4775 30.1571 53.2714 30.3632 52.9622 30.3632H50.2827Z" fill="#20484F"/>
<path d="M57.5034 33.4035L57.926 32.3729H60.6467L61.0693 33.4035H62.1823L60.0696 28.2505H58.5237L56.411 33.4035H57.5034ZM58.3073 31.4453L59.2348 29.1781H59.3379L60.2654 31.4453H58.3073Z" fill="#20484F"/>
<path d="M63.2185 28.2505L65.3312 33.4035H66.8771L68.9898 28.2505H67.8974L66.166 32.4759H66.0629L64.3316 28.2505H63.2185Z" fill="#20484F"/>
<path d="M76.1536 29.1781V28.2505H71.1037V33.4035H76.1536V32.4759H72.1343V31.2908H75.123V30.3632H72.1343V29.1781H76.1536Z" fill="#20484F"/>
<path d="M78.5754 33.4035H82.6978V32.4759H79.606V28.2505H78.5754V33.4035Z" fill="#20484F"/>
<path d="M88.517 33.4035H92.124C93.0516 33.4035 93.6699 32.7851 93.6699 31.8576C93.6699 31.3629 93.4226 30.9816 93 30.7652C93.2886 30.5384 93.4638 30.1983 93.4638 29.7964C93.4638 28.8689 92.8454 28.2505 91.9179 28.2505H88.517V33.4035ZM89.5476 31.2908H92.124C92.4332 31.2908 92.6393 31.4969 92.6393 31.806V31.9606C92.6393 32.2698 92.4332 32.4759 92.124 32.4759H89.5476V31.2908ZM89.5476 30.3632V29.1781H91.9179C92.2271 29.1781 92.4332 29.3842 92.4332 29.6933V29.8479C92.4332 30.1571 92.2271 30.3632 91.9179 30.3632H89.5476Z" fill="#20484F"/>
<path d="M98.4106 28.1475C96.8647 28.1475 95.7311 29.2811 95.7311 30.827C95.7311 32.3729 96.8647 33.5065 98.4106 33.5065C99.9565 33.5065 101.09 32.3729 101.09 30.827C101.09 29.2811 99.9565 28.1475 98.4106 28.1475ZM98.4106 32.5275C97.4831 32.5275 96.8132 31.806 96.8132 30.827C96.8132 29.8479 97.4831 29.1265 98.4106 29.1265C99.3381 29.1265 100.008 29.8479 100.008 30.827C100.008 31.806 99.3381 32.5275 98.4106 32.5275Z" fill="#20484F"/>
<path d="M105.884 32.5275C105.049 32.5275 104.441 31.8576 104.441 30.93V28.2505H103.41V30.93C103.41 32.4141 104.461 33.5065 105.884 33.5065C107.306 33.5065 108.357 32.4141 108.357 30.93V28.2505H107.326V30.93C107.326 31.8576 106.718 32.5275 105.884 32.5275Z" fill="#20484F"/>
<path d="M110.571 29.1781H112.633V33.4035H113.663V29.1781H115.724V28.2505H110.571V29.1781Z" fill="#20484F"/>
<path d="M118.972 33.4035V28.2505H117.941V33.4035H118.972Z" fill="#20484F"/>
<path d="M126.144 33.558L126.701 33.0015L126.144 32.445C126.464 32.0122 126.649 31.4556 126.649 30.827C126.649 29.2811 125.516 28.1475 123.97 28.1475C122.424 28.1475 121.29 29.2811 121.29 30.827C121.29 32.3729 122.424 33.5065 123.97 33.5065C124.599 33.5065 125.145 33.321 125.588 33.0015L126.144 33.558ZM124.856 32.2698C124.609 32.4347 124.3 32.5275 123.97 32.5275C123.042 32.5275 122.373 31.806 122.373 30.827C122.373 29.8479 123.042 29.1265 123.97 29.1265C124.897 29.1265 125.567 29.8479 125.567 30.827C125.567 31.1465 125.495 31.435 125.372 31.6824L124.763 31.064L124.207 31.6205L124.856 32.2698Z" fill="#20484F"/>
<path d="M131.443 32.5275C130.608 32.5275 130 31.8576 130 30.93V28.2505H128.969V30.93C128.969 32.4141 130.021 33.5065 131.443 33.5065C132.865 33.5065 133.916 32.4141 133.916 30.93V28.2505H132.886V30.93C132.886 31.8576 132.278 32.5275 131.443 32.5275Z" fill="#20484F"/>
<path d="M141.541 29.1781V28.2505H136.492V33.4035H141.541V32.4759H137.522V31.2908H140.511V30.3632H137.522V29.1781H141.541Z" fill="#20484F"/>
</svg>
