<svg width="21" height="21" viewBox="0 0 21 21" fill="none" xmlns="http://www.w3.org/2000/svg">
<path d="M10.5149 0C4.72148 0 0.0253601 4.69613 0.0253601 10.4886C0.0253601 14.9328 2.78861 18.7285 6.69111 20.2554C6.59923 19.425 6.51699 18.1527 6.72698 17.2462C6.91861 16.4264 7.95723 12.0339 7.95723 12.0339C7.95723 12.0339 7.64311 11.4039 7.64311 10.4755C7.64311 9.02038 8.48923 7.92837 9.54011 7.92837C10.4361 7.92837 10.8684 8.60125 10.8684 9.40537C10.8684 10.3057 10.297 11.6515 10.0004 12.8984C9.75098 13.9423 10.5254 14.7928 11.5535 14.7928C13.4155 14.7928 14.8505 12.8284 14.8505 9.99162C14.8505 7.48825 13.0454 5.73125 10.4685 5.73125C7.48473 5.73125 5.73561 7.973 5.73561 10.2804C5.73561 11.1842 6.08036 12.1555 6.51348 12.6787C6.60011 12.7837 6.61148 12.8756 6.58786 12.9806C6.50911 13.3088 6.33148 14.0297 6.29561 14.1732C6.24924 14.3701 6.14511 14.4104 5.94474 14.3176C4.63661 13.7139 3.81586 11.7994 3.81586 10.2524C3.81586 6.94837 6.22036 3.90688 10.7459 3.90688C14.3841 3.90688 17.2139 6.503 17.2139 9.9645C17.2139 13.5826 14.9327 16.4938 11.76 16.4938C10.6977 16.4938 9.70023 15.9434 9.34673 15.2871L8.69136 17.7791C8.45598 18.6935 7.81286 19.8371 7.38061 20.5319C8.36323 20.8338 9.39836 21 10.4869 21C16.268 21 20.9737 16.3056 20.9737 10.5114C20.9737 4.71625 16.268 0.02275 10.4869 0.02275L10.5149 0Z" fill="white"/>
</svg>
