<svg width="21" height="21" viewBox="0 0 21 21" fill="none" xmlns="http://www.w3.org/2000/svg">
<path d="M11.9035 7.35H8.92413V10.5H11.9035C12.7741 10.5 13.4794 9.79475 13.4794 8.92413C13.4794 8.05525 12.775 7.35 11.9035 7.35ZM10.5 0C4.7005 0 0 4.7005 0 10.5C0 16.2995 4.7005 21 10.5 21C16.2995 21 21 16.2995 21 10.5C21 4.7005 16.2995 0 10.5 0ZM11.9035 12.6H8.92413V15.75H6.82588V5.25H11.9044C13.9335 5.25 15.5794 6.895 15.5794 8.92413C15.5794 10.955 13.9335 12.6 11.9035 12.6V12.6Z" fill="white"/>
</svg>
