<svg width="21" height="21" viewBox="0 0 21 21" fill="none" xmlns="http://www.w3.org/2000/svg">
<path d="M10.5604 16.5148C7.04027 16.5148 5.46789 14.7831 5.46789 13.4837C5.46789 12.8144 5.95876 12.3498 6.63426 12.3498C8.14189 12.3498 7.74814 14.5171 10.5604 14.5171C11.9963 14.5171 12.7916 13.734 12.7916 12.9325C12.7916 12.4504 12.5563 11.9175 11.6069 11.6821L8.47789 10.899C5.95789 10.2655 5.50026 8.89875 5.50026 7.61687C5.50026 4.95075 8.00364 3.94975 10.3556 3.94975C12.5178 3.94975 15.0745 5.15112 15.0745 6.74887C15.0745 7.43487 14.4725 7.83388 13.8031 7.83388C12.5178 7.83388 12.7549 6.0515 10.1596 6.0515C8.87426 6.0515 8.15414 6.6325 8.15414 7.46637C8.15414 8.30025 9.16301 8.56713 10.0415 8.7675L12.3489 9.28113C14.8785 9.849 15.5199 11.3339 15.5199 12.7321C15.5199 14.8986 13.8556 16.5156 10.5131 16.5156L10.5604 16.5148ZM20.2116 12.2439L20.1863 12.362L20.1478 12.152C20.1609 12.1914 20.1863 12.2168 20.1994 12.257C20.3044 11.6664 20.3578 11.0644 20.3578 10.4615C20.3578 9.12363 20.0944 7.826 19.572 6.594C19.0741 5.4145 18.3514 4.35225 17.4484 3.4475C16.5305 2.54363 15.4823 1.8235 14.3028 1.32475C13.1495 0.772625 11.8519 0.511 10.5158 0.511C9.88576 0.511 9.25226 0.57225 8.64064 0.6895L8.74477 0.742L8.53564 0.713125L8.63976 0.69125C7.79626 0.23975 6.85039 0 5.88964 0C4.32426 0 2.85339 0.61075 1.74564 1.72113C0.63789 2.83063 0.0280151 4.30763 0.0280151 5.8765C0.0280151 6.87663 0.283515 7.85838 0.766515 8.72725L0.784015 8.61875L0.81989 8.82787L0.76739 8.72725C0.66764 9.29162 0.61689 9.86387 0.61689 10.4379C0.61689 11.7766 0.87939 13.0777 1.39039 14.3019C1.88739 15.4936 2.59614 16.5559 3.51401 17.4598C4.41876 18.3785 5.48014 19.0846 6.65964 19.5965C7.87939 20.1215 9.17702 20.3823 10.5131 20.3823C11.0898 20.3823 11.6804 20.3297 12.243 20.2256L12.1389 20.1714L12.3489 20.2116L12.2308 20.2379C13.1075 20.7357 14.091 21 15.113 21C16.6731 21 18.1396 20.3963 19.2544 19.2824C20.356 18.1808 20.9711 16.7003 20.9711 15.127C20.9711 14.1313 20.7095 13.1478 20.2248 12.2693" fill="white"/>
</svg>
