<svg width="21" height="21" viewBox="0 0 21 21" fill="none" xmlns="http://www.w3.org/2000/svg">
<g clip-path="url(#clip0)">
<path d="M4.41175 13.2694C4.4106 13.8541 4.178 14.4145 3.7648 14.8282C3.35161 15.2419 2.79144 15.4752 2.20675 15.477C1.62176 15.4756 1.06114 15.2426 0.647565 14.8288C0.233995 14.4151 0.00115538 13.8544 0 13.2694C0.00161828 12.6848 0.23469 12.1246 0.648235 11.7114C1.06178 11.2982 1.62214 11.0655 2.20675 11.0644H4.41175V13.2694ZM5.52388 13.2694C5.52549 12.6849 5.75844 12.1249 6.1718 11.7117C6.58516 11.2985 7.14529 11.0658 7.72975 11.0644C8.31421 11.0658 8.87434 11.2985 9.2877 11.7117C9.70106 12.1249 9.93401 12.6849 9.93562 13.2694V18.7933C9.93424 19.3779 9.70142 19.9383 9.28806 20.3518C8.8747 20.7653 8.31444 20.9984 7.72975 21C7.14506 20.9984 6.5848 20.7653 6.17144 20.3518C5.75808 19.9383 5.52526 19.3779 5.52388 18.7933V13.2694V13.2694ZM7.72975 4.41175C7.14536 4.41013 6.58536 4.17733 6.17205 3.76419C5.75875 3.35105 5.52572 2.79114 5.52388 2.20675C5.52526 1.62206 5.75808 1.0617 6.17144 0.648182C6.5848 0.234661 7.14506 0.00161736 7.72975 0C8.31444 0.00161736 8.8747 0.234661 9.28806 0.648182C9.70142 1.0617 9.93424 1.62206 9.93562 2.20675V4.41175H7.72975ZM7.72975 5.52388C8.31429 5.52549 8.87442 5.75841 9.28775 6.17175C9.70109 6.58508 9.93401 7.14521 9.93562 7.72975C9.93401 8.31429 9.70109 8.87442 9.28775 9.28775C8.87442 9.70109 8.31429 9.93401 7.72975 9.93562H2.20675C1.62206 9.93424 1.0617 9.70142 0.648182 9.28806C0.234661 8.8747 0.00161736 8.31444 0 7.72975C0.00161736 7.14506 0.234661 6.5848 0.648182 6.17144C1.0617 5.75808 1.62206 5.52526 2.20675 5.52388H7.72975ZM16.5865 7.72975C16.5881 7.14506 16.8212 6.5848 17.2347 6.17144C17.6482 5.75808 18.2086 5.52526 18.7933 5.52388C19.3779 5.52526 19.9383 5.75808 20.3518 6.17144C20.7653 6.5848 20.9984 7.14506 21 7.72975C20.9984 8.31444 20.7653 8.8747 20.3518 9.28806C19.9383 9.70142 19.3779 9.93424 18.7933 9.93562H16.5865V7.72975V7.72975ZM15.477 7.72975C15.4754 8.31459 15.2422 8.87499 14.8285 9.28837C14.4148 9.70175 13.8542 9.93447 13.2694 9.93562C12.6849 9.93401 12.1249 9.70106 11.7117 9.2877C11.2985 8.87434 11.0658 8.31421 11.0644 7.72975V2.20675C11.0655 1.62214 11.2982 1.06178 11.7114 0.648235C12.1246 0.23469 12.6848 0.00161828 13.2694 0C13.8544 0.00115538 14.4151 0.233995 14.8288 0.647565C15.2426 1.06114 15.4756 1.62176 15.477 2.20675V7.72975ZM13.2694 16.5865C13.8544 16.5877 14.4151 16.8205 14.8288 17.2341C15.2426 17.6476 15.4756 18.2083 15.477 18.7933C15.4756 19.3782 15.2426 19.9389 14.8288 20.3524C14.4151 20.766 13.8544 20.9988 13.2694 21C12.6848 20.9984 12.1246 20.7653 11.7114 20.3518C11.2982 19.9382 11.0655 19.3779 11.0644 18.7933V16.5865H13.2694V16.5865ZM13.2694 15.477C12.6846 15.4754 12.1243 15.2422 11.7111 14.8285C11.2978 14.4147 11.0653 13.8541 11.0644 13.2694C11.0658 12.685 11.2985 12.125 11.7117 11.7117C12.125 11.2985 12.685 11.0658 13.2694 11.0644H18.7933C19.3779 11.0655 19.9382 11.2982 20.3518 11.7114C20.7653 12.1246 20.9984 12.6848 21 13.2694C20.9988 13.8544 20.766 14.4151 20.3524 14.8288C19.9389 15.2426 19.3782 15.4756 18.7933 15.477H13.2694V15.477Z" fill="white"/>
</g>
<defs>
<clipPath id="clip0">
<rect width="21" height="21" fill="white"/>
</clipPath>
</defs>
</svg>
