<svg width="21" height="21" viewBox="0 0 21 21" fill="none" xmlns="http://www.w3.org/2000/svg">
<g clip-path="url(#clip0)">
<path d="M20.9597 3.99747C20.1854 4.33784 19.3585 4.56972 18.4879 4.67559C19.3751 4.14097 20.0576 3.29834 20.3805 2.29297C19.5484 2.77859 18.6261 3.13209 17.6444 3.32897C16.8604 2.48984 15.743 1.96484 14.5022 1.96484C12.1249 1.96484 10.1972 3.89247 10.1972 6.26722C10.1972 6.60847 10.2366 6.93659 10.3084 7.25072C6.72962 7.08184 3.55775 5.36334 1.435 2.76547C1.06137 3.39722 0.85225 4.13134 0.85225 4.93109C0.85225 6.42734 1.6135 7.74247 2.76675 8.51509C2.06062 8.49234 1.3965 8.29809 0.81725 7.97609V8.02947C0.81725 10.1163 2.29862 11.8567 4.27 12.2531C3.90862 12.3502 3.52712 12.4027 3.136 12.4027C2.86125 12.4027 2.59787 12.3765 2.3345 12.3275C2.88662 14.0363 4.47387 15.2823 6.363 15.3173C4.893 16.4715 3.03012 17.1592 1.02375 17.1592C0.6825 17.1592 0.342125 17.1391 0 17.1006C1.91537 18.3203 4.172 19.0335 6.61237 19.0335C14.5346 19.0335 18.8615 12.4745 18.8615 6.79572C18.8615 6.61284 18.8615 6.42822 18.8484 6.24447C19.6892 5.64159 20.4234 4.87947 21.0009 4.01497L20.9597 3.99747Z" fill="#20484F"/>
</g>
<defs>
<clipPath id="clip0">
<rect width="21" height="21" fill="white"/>
</clipPath>
</defs>
</svg>
