<svg width="21" height="21" viewBox="0 0 21 21" fill="none" xmlns="http://www.w3.org/2000/svg">
<g clip-path="url(#clip0)">
<path d="M20.9799 5.61403C20.888 7.65978 19.4583 10.4642 16.6976 14.0219C13.8381 17.738 11.4249 19.5957 9.44388 19.5957C8.211 19.5957 7.18813 18.4634 6.335 16.1998L4.65675 9.97503C4.02763 7.71403 3.35475 6.58178 2.63375 6.58178C2.47713 6.58178 1.9285 6.91253 0.987875 7.57228L0 6.2974C1.03688 5.3839 2.05713 4.4739 3.06338 3.5604C4.445 2.3634 5.48275 1.73603 6.17313 1.67128C7.80675 1.51378 8.81213 2.63378 9.18925 5.02953C9.59613 7.6134 9.87963 9.2199 10.0389 9.84816C10.5105 11.9919 11.0285 13.0629 11.5929 13.0629C12.0321 13.0629 12.6919 12.3664 13.5748 10.976C14.4533 9.58565 14.9223 8.52865 14.9853 7.80153C15.1113 6.6019 14.6396 5.99815 13.573 5.99815C13.0708 5.99815 12.5519 6.10403 12.0181 6.34028C13.0559 2.95578 15.0229 1.3029 17.9349 1.4079C20.0988 1.4604 21.1094 2.8639 20.9913 5.60528L20.9799 5.61403Z" fill="#20484F"/>
</g>
<defs>
<clipPath id="clip0">
<rect width="21" height="21" fill="white"/>
</clipPath>
</defs>
</svg>
