<svg width="21" height="21" viewBox="0 0 21 21" fill="none" xmlns="http://www.w3.org/2000/svg">
<path d="M20.5581 5.42933C20.4365 4.99337 20.2044 4.59617 19.8843 4.27612C19.5643 3.95607 19.1671 3.724 18.7311 3.60233C17.0949 3.16395 10.5096 3.16395 10.5096 3.16395C10.5096 3.16395 3.94099 3.1552 2.28812 3.60233C1.85216 3.724 1.45496 3.95607 1.13491 4.27612C0.814864 4.59617 0.582789 4.99337 0.46112 5.42933C0.15095 7.10452 -0.00196462 8.80505 0.0043699 10.5087C-0.000767108 12.2059 0.152143 13.9 0.46112 15.5688C0.582789 16.0048 0.814864 16.402 1.13491 16.722C1.45496 17.0421 1.85216 17.2742 2.28812 17.3958C3.92262 17.8351 10.5096 17.8351 10.5096 17.8351C10.5096 17.8351 17.0774 17.8351 18.7311 17.3958C19.1671 17.2742 19.5643 17.0421 19.8843 16.722C20.2044 16.402 20.4365 16.0048 20.5581 15.5688C20.8606 13.8993 21.0071 12.2053 20.9956 10.5087C21.0083 8.80565 20.8618 7.10513 20.5581 5.42933V5.42933ZM8.40787 13.6508V7.35695L13.8889 10.5087L8.40787 13.6508Z" fill="white"/>
</svg>
