<svg width="21" height="21" viewBox="0 0 21 21" fill="none" xmlns="http://www.w3.org/2000/svg">
<path d="M20.5578 5.42945C20.4362 4.99349 20.2041 4.59629 19.8841 4.27624C19.564 3.95619 19.1668 3.72412 18.7308 3.60245C17.0946 3.16408 10.5093 3.16407 10.5093 3.16407C10.5093 3.16407 3.94072 3.15533 2.28784 3.60245C1.85189 3.72412 1.45469 3.95619 1.13464 4.27624C0.81459 4.59629 0.582515 4.99349 0.460845 5.42945C0.150676 7.10465 -0.00223928 8.80517 0.00409524 10.5088C-0.00104177 12.2061 0.151868 13.9001 0.460845 15.5689C0.582515 16.0049 0.81459 16.4021 1.13464 16.7222C1.45469 17.0422 1.85189 17.2743 2.28784 17.396C3.92234 17.8352 10.5093 17.8352 10.5093 17.8352C10.5093 17.8352 17.0771 17.8352 18.7308 17.396C19.1668 17.2743 19.564 17.0422 19.8841 16.7222C20.2041 16.4021 20.4362 16.0049 20.5578 15.5689C20.8604 13.8995 21.0068 12.2055 20.9953 10.5088C21.008 8.80577 20.8616 7.10525 20.5578 5.42945ZM8.4076 13.6509V7.35707L13.8886 10.5088L8.4076 13.6509Z" fill="#20484F"/>
</svg>
